<?xml version="1.0" encoding="utf-8"?>
<!-- Generator: Adobe Illustrator 16.0.2, SVG Export Plug-In . SVG Version: 6.00 Build 0)  -->
<!DOCTYPE svg PUBLIC "-//W3C//DTD SVG 1.1//EN" "http://www.w3.org/Graphics/SVG/1.1/DTD/svg11.dtd">
<svg version="1.1" id="圖層_1" xmlns="http://www.w3.org/2000/svg" xmlns:xlink="http://www.w3.org/1999/xlink" x="0px" y="0px"
	 width="500px" height="500px" viewBox="0 0 500 500" enable-background="new 0 0 500 500" xml:space="preserve">
<g>
	<path fill-rule="evenodd" clip-rule="evenodd" fill="#5C4B43" d="M125.653,292.032c-5.608-4.197-6.406-10.638-7.086-16.735
		c-3.559-31.838-0.655-63.122,8.98-93.715c5.747-18.255,11.595-36.51,24.249-51.485c15.152-17.93,33.729-30.17,57.472-33.168
		c8.932-1.127,17.204-4.691,26.052-6.128c37.047-6.024,67.829,7.238,95.187,30.797c23.133,19.923,37.532,45.518,45.521,74.562
		c10.207,37.076,16.16,74.793,13.095,113.477c-2.199,27.731-8.704,54.099-23.545,78.067c-6.15,9.934-13.81,18.181-23.438,24.672
		c-1.872,1.257-3.813,2.934-6.21,1.172c-2.52-1.852-1.126-3.873-0.268-6.061c1.7-4.322,1.195-8.871,1.365-14.305
		c-8.531,4.481-16.164,8.74-24.662,10.795c-2.31,0.562-4.945,2.236-7.053-0.069c-2.264-2.478,0.246-4.58,1.109-6.779
		c3.047-7.746,5.191-15.751,6.75-23.92c-0.56-4.374,0.179-8.671,1.107-12.891c2.793-12.682,1.4-25.703,3.239-38.456
		c0.135-0.944,0.245-2.084-1.118-3.061c-4.064,3.593-7.187,8.352-11.91,11.344c-2.269,1.439-4.462,3.463-7.341,1.536
		c-3.003-2.002-2.54-4.903-1.76-7.849c4.922-18.638,6.312-37.629,6.048-56.838c-0.069-4.646-1.569-6.077-6.206-5.996
		c-11.97,0.207-14.201-1.694-17.208-13.435c-2.117-8.271-5.329-16.175-7.83-24.228c-0.465-0.59,0.698-0.527-0.112-0.514
		c-0.587,0.008-0.532-0.147-0.139,0.396c0.434,0.603,0.564,1.382,0.721,2.136c2.301,8.065,2.563,16.417,3.498,24.653
		c0.566,4.956-2.179,8.296-7.042,9.626c-2.606,0.712-5.284,1.241-7.98,1.373c-24.4,1.2-48.589,0.017-72.335-6.349
		c-4.064-1.09-5.575-4.047-6.262-7.699c-0.846-4.505-0.397-9.097-0.824-12.975c0.073,4.75-1.149,10.074-1.099,15.5
		c0.037,4.292-2.314,6.121-6.449,6.863c-9.157,1.648-18.229-0.346-27.339-0.355c-5.624-0.004-7.744,1.709-8.619,6.996
		c-1.359,8.214-2.587,16.375-2.643,24.743C133.529,293.848,131.683,294.612,125.653,292.032z"/>
	<path fill-rule="evenodd" clip-rule="evenodd" fill="#FCE9E2" d="M318.2,314.62c-5.636,4.634-10.437,9.716-15.343,14.691
		c-1.479,1.494-3.296,2.885-5.475,1.211c-1.823-1.401-1.169-3.24-0.642-5.118c5.266-18.558,6.76-37.556,6.558-56.747
		c-0.104-9.781-0.105-9.781-9.596-9.513c-9.476,0.263-10.705-0.645-13.384-10.08c-2.722-9.586-5.381-19.194-9.846-28.169
		c-2.218-0.231-1.81,1.006-1.283,2.306c1.023,8.463,1.897,16.949,3.123,25.384c0.811,5.573-1.071,8.604-6.667,9.604
		c-8.238,1.474-16.564,1.587-24.895,1.474c-16.484-0.221-32.636-2.473-48.832-5.83c-8.181-1.693-9.988-5.085-10.08-12.054
		c-0.057-4.586-0.852-9.162-1.317-13.74c-2.095,7.111-4.788,14.095-3.664,21.403c0.717,4.648-1.257,5.558-5.02,5.456
		c-10.4-0.282-20.809-0.384-31.194-0.95c-2.838-0.155-4.068,0.372-4.799,3.115c-2.585,9.683-4.711,19.479-4.094,29.505
		c0.327,5.289-1.537,6.457-6.1,5.464c0.618,5.85,0.252,11.067-6.543,13.524c-1.772,0.64-5.664,5.027-6.631,6.768
		c-0.092,0.18-0.16,0.339-0.244,0.512c-3.911,14.414-3.81,29.219,4.576,41.938c7.509,8.798,17.553,12.457,27.525,15.862
		c25.255,8.636,51.847,7.698,77.972,9.748c11.312,0.884,22.768,0.366,34.211-0.868c17.465-1.877,35.069-2.538,52.206-6.86
		c1.648-0.419,3.166-1.279,4.446,0.554C318.854,354.142,318.424,334.551,318.2,314.62z"/>
	<path fill-rule="evenodd" clip-rule="evenodd" fill="#5C4B43" d="M270.474,220.896c-0.427,0.768-0.856,1.538-1.283,2.306
		c-1.172-1.287-1.757-2.945-0.384-4.091C269.557,218.485,270.343,219.841,270.474,220.896z"/>
	<path fill-rule="evenodd" clip-rule="evenodd" fill="#FDBBBC" d="M260.537,351.823c-8.409-0.003-14.464-9.451-15.125-21.388
		c-0.602-10.871,7.444-16.955,18.22-17.245c9.146-0.242,17.028,8.989,16.928,19.435
		C280.474,342.032,270.252,351.834,260.537,351.823z"/>
	<path fill-rule="evenodd" clip-rule="evenodd" fill="#FDBBBC" d="M151.883,330.234c-0.052,9.939-6.388,16.804-15.302,16.582
		c-9.318-0.232-17.401-8.637-17.137-17.822c0.262-9.146,9.015-18.5,17.233-18.41C145.854,310.685,151.947,318.561,151.883,330.234z"
		/>
	<path fill-rule="evenodd" clip-rule="evenodd" fill="#444444" d="M194.238,350.533c-13.397,0.021-27.653-10.344-31.888-23.188
		c-2.114-6.417,0.365-9.379,6.802-8.702c15.313,1.614,30.706,1.744,46.074,1.495c5.206-0.086,6.525,2.006,6.456,6.572
		C221.5,339.174,208.528,350.506,194.238,350.533z"/>
	<path fill-rule="evenodd" clip-rule="evenodd" fill="#3B3A3A" d="M151.622,275.278c-0.05-7.293,3.317-13.073,7.745-13.292
		c4.748-0.236,8.555,5.684,8.516,13.25c-0.038,7.328-3.551,12.914-8.144,12.938C155.12,288.201,151.669,282.721,151.622,275.278z"/>
	<path fill-rule="evenodd" clip-rule="evenodd" fill="#3B3A3A" d="M227.834,275.314c-0.056-7.268,3.308-13.1,7.707-13.351
		c4.734-0.27,8.582,5.676,8.555,13.229c-0.021,7.318-3.521,12.928-8.099,12.985C231.37,288.233,227.898,282.764,227.834,275.314z"/>
	<path fill-rule="evenodd" clip-rule="evenodd" fill="#FD908F" d="M167.72,324.6c15.396,1.315,29.889,1.209,44.375,1.3
		c4.7,0.031,3.764,2.44,2.581,5.264c-5.84,13.971-23.256,17.957-36.102,8.147C173.907,335.74,170.509,331.115,167.72,324.6z"/>
</g>
</svg>
